<svg xmlns="http://www.w3.org/2000/svg" version="1.1" xmlns:xlink="http://www.w3.org/1999/xlink" xmlns:svgjs="http://svgjs.dev/svgjs" width="1000" height="625" viewBox="0 0 1000 625"><g transform="matrix(1,0,0,1,0,0)"><svg viewBox="0 0 512 320" data-background-color="#ffffff" preserveAspectRatio="xMidYMid meet" height="625" width="1000" xmlns="http://www.w3.org/2000/svg" xmlns:xlink="http://www.w3.org/1999/xlink"><g id="tight-bounds" transform="matrix(1,0,0,1,0,0)"><svg viewBox="0 0 512 320" height="320" width="512"><g><svg></svg></g><g><svg viewBox="0 0 512 320" height="320" width="512"><g><path xmlns="http://www.w3.org/2000/svg" d="M96 160c0-88.366 71.634-160 160-160 88.366 0 160 71.634 160 160 0 88.366-71.634 160-160 160-88.366 0-160-71.634-160-160zM256 318.862c87.737 0 158.862-71.125 158.862-158.862 0-87.737-71.125-158.862-158.862-158.862-87.737 0-158.862 71.125-158.862 158.862 0 87.737 71.125 158.862 158.862 158.862z" fill="#50a060" fill-rule="nonzero" stroke="none" stroke-width="1" stroke-linecap="butt" stroke-linejoin="miter" stroke-miterlimit="10" stroke-dasharray="" stroke-dashoffset="0" font-family="none" font-weight="none" font-size="none" text-anchor="none" style="mix-blend-mode: normal" data-fill-palette-color="tertiary"></path></g><g transform="matrix(1,0,0,1,116.13999999999999,20.139999999999986)"><svg viewBox="0 0 279.72 279.72" height="279.72" width="279.72"><g><svg viewBox="0 0 279.72 279.72" height="279.72" width="279.72"><g><svg viewBox="0 0 279.72 279.72" height="279.72" width="279.72"><g id="textblocktransform"><svg viewBox="0 0 279.72 279.72" height="279.72" width="279.72" id="textblock"><g><svg viewBox="0 0 279.72 279.72" height="279.72" width="279.72"><g transform="matrix(1,0,0,1,57.446704652707865,57.446704652707865)"><svg viewBox="0 0 164.8265906945843 164.8265906945843" height="164.8265906945843" width="164.8265906945843"><g><circle r="82" cx="82.41329534729215" cy="82.41329534729215" fill="#50a060" data-fill-palette-color="accent"></circle><svg xmlns="http://www.w3.org/2000/svg" xmlns:xlink="http://www.w3.org/1999/xlink" version="1.1" x="24.72398860418764" y="24.723988604187646" viewBox="0 0 99.99992370605469 76.92499542236328" enable-background="new 0 0 100 76.923" xml:space="preserve" width="115.378613486209" height="115.378613486209" class="icon-o-0" data-fill-palette-color="quaternary" id="o-0"><g fill="#ffffff" data-fill-palette-color="quaternary"><path d="M96.036 18.735c-2.396-3.028-5.817-4.628-9.896-4.628-1.411 0-2.923 0.201-4.52 0.586-0.093-0.033-0.171-0.091-0.269-0.116-0.241-0.061-2.44-0.603-5.647-0.603-0.119 0-0.257 0.007-0.379 0.009 0.672-2.843 0.763-5.913-0.642-8.542C72.756 1.832 68.701 0 62.627 0c-6.691 0-10.057 3.732-13.025 7.024-1.938 2.151-3.769 4.181-6.582 5.476-1.525 0.701-3.199 1.135-3.754 1.27-0.028-0.081-0.045-0.174-0.075-0.25-0.536-1.399-2.815-5.965-9.637-5.965-2.794 0-6.04 0.785-9.646 2.332-2.053 0.878-4.075 1.325-6.01 1.325-7.004 0-11.062-5.891-11.1-5.947C2.425 4.702 1.728 4.451 1.085 4.648 0.441 4.843 0 5.437 0 6.11c0 0.195 0.211 19.603 18.483 23.257 2.115 0.422 4.126 0.637 5.981 0.637 7.31 0 11.071-3.235 12.937-5.95 0.943-1.372 1.556-2.823 1.915-4.236 0.34 0.046 0.691 0.046 1.046-0.028 0.11-0.025 2.743-0.603 5.212-1.738 3.955-1.82 6.406-4.538 8.566-6.935 2.718-3.015 4.514-5.006 8.487-5.006 2.5 0 5.688 0.383 6.665 2.206 0.848 1.583 0.288 4.195-0.659 6.619-2.059 0.57-4.219 1.438-6.334 2.792-17.66 11.312-17.448 33.512-17.43 34.45 0 0.006 0.002 0.012 0.002 0.019-0.522 2.45-0.861 4.959-0.959 7.538-0.248 6.478 1 11.048 3.817 13.975 2.024 2.104 4.827 3.215 8.105 3.215 5.05 0 10.12-2.627 11.519-3.41 3.418-1.034 26.397-8.752 31.554-30.621C100.292 37.017 101.248 25.318 96.036 18.735zM17.263 19.421c1.014 0.991 3.028 2.16 5.535 2.16 1.699 0 3.624-0.537 5.614-2.03 3.761-2.819 6.688-1.568 7.993-0.693-0.257 1.119-0.729 2.314-1.521 3.465-2.808 4.083-8.398 5.528-15.8 4.049C8.225 24.2 4.722 15.764 3.592 10.478c2.305 1.872 5.772 3.787 10.306 3.787 2.351 0 4.778-0.529 7.213-1.572 3.225-1.382 6.066-2.083 8.443-2.083 4.739 0 6.323 2.8 6.784 4.002 0.09 0.236 0.159 0.543 0.215 0.879-2.507-1.047-6.109-1.28-9.976 1.618-3.962 2.973-6.871 0.422-7.181 0.13-0.602-0.589-1.57-0.579-2.16 0.024C16.648 17.866 16.659 18.833 17.263 19.421zM92.959 41.49c-4.618 19.581-27.405 26.187-27.629 26.25-0.269 0.073-0.523 0.184-0.761 0.327-0.045 0.026-4.672 2.746-8.735 2.746-1.623 0-2.834-0.438-3.702-1.341-0.107-0.11-0.2-0.249-0.299-0.375-1.366-1.901-0.679-2.79 0.805-4.622 0.69-0.854 1.472-1.818 1.945-2.972 0.32-0.78-0.053-1.672-0.833-1.993-0.783-0.323-1.672 0.053-1.992 0.833-0.304 0.738-0.882 1.452-1.493 2.209-0.073 0.089-0.149 0.182-0.225 0.275-0.049-0.889-0.062-1.837-0.023-2.86 0.568-14.835 9.027-26.956 25.146-36.027 4.389-2.471 8.082-3.723 10.976-3.723 2.236 0 3.858 0.734 5.106 2.31C94.375 26.48 94.477 35.059 92.959 41.49z" fill="#ffffff" data-fill-palette-color="quaternary"></path><path d="M88.633 24.605c-0.832 0.139-1.396 0.925-1.256 1.758 0.025 0.157 2.556 15.902-3.935 21.932-0.618 0.574-0.653 1.541-0.078 2.158 0.3 0.324 0.709 0.488 1.119 0.488 0.371 0 0.746-0.136 1.038-0.409 7.68-7.135 4.986-23.958 4.869-24.671C90.252 25.029 89.469 24.459 88.633 24.605z" fill="#ffffff" data-fill-palette-color="quaternary"></path></g></svg></g></svg></g><g><path d="M20.017 103.536c-0.378 1.197-0.839 2.299-1.384 3.304-0.544 1.006-1.037 1.754-1.476 2.244v0l-3.712-1.172 1.305-4.131c0.386 0.122 0.692 0.124 0.92 0.005 0.228-0.118 0.415-0.41 0.562-0.875v0c0.122-0.386 0.152-0.68 0.092-0.882-0.065-0.211-0.217-0.354-0.457-0.43v0c-0.2-0.063-0.399-0.034-0.598 0.086-0.19 0.116-0.425 0.349-0.704 0.699v0l-1.069 1.44c-0.964 1.224-1.898 2.027-2.801 2.407-0.909 0.378-1.97 0.376-3.18-0.006v0c-1.477-0.466-2.444-1.306-2.902-2.518-0.467-1.208-0.342-2.946 0.374-5.214v0c0.342-1.084 0.775-2.071 1.297-2.959 0.522-0.888 1.055-1.569 1.599-2.041v0l3.362 1.062-1.185 3.751c-0.625-0.197-1.06 0.09-1.303 0.861v0c-0.12 0.379-0.157 0.66-0.113 0.843 0.043 0.189 0.184 0.321 0.424 0.397v0c0.213 0.067 0.412 0.028 0.597-0.119 0.176-0.142 0.4-0.397 0.669-0.765v0l1.072-1.45c0.872-1.187 1.763-1.97 2.673-2.349 0.909-0.378 1.946-0.384 3.111-0.016v0c1.59 0.502 2.621 1.417 3.094 2.744 0.475 1.32 0.386 3.015-0.267 5.083z" fill="#50a060" data-fill-palette-color="primary"></path><path d="M25.425 88.361l-2.917 6.878-2.967-1.259 0.384-0.905-8.148-3.457-0.384 0.906-2.977-1.263 2.917-6.877 2.977 1.262-0.384 0.906 8.148 3.456 0.385-0.905z" fill="#50a060" data-fill-palette-color="primary"></path><path d="M32.802 74.68l-6.38 11.644-2.826-1.548 0.472-0.862-7.762-4.254-0.473 0.863-2.835-1.554 6.379-11.644 5.212 2.856-2.116 3.863-2.377-1.302-1.146 2.092 2.725 1.493 0.83-1.514 1.963 1.076-0.829 1.514 3.074 1.684 1.146-2.092-2.725-1.493 2.116-3.863z" fill="#50a060" data-fill-palette-color="primary"></path><path d="M34.939 46.551l2.564 1.969-0.599 0.78 7.02 5.391 0.599-0.78 2.556 1.963-4.525 5.891-2.555-1.962 0.573-0.747-5.46-4.193 5.977 8.811-1.772 2.307-10.038-3.368 5.386 4.135 0.573-0.747 2.556 1.963-3.925 5.112-2.556-1.963 0.599-0.78-7.02-5.391-0.599 0.78-2.565-1.969 5.487-7.145 6.114 2.123-3.673-5.301z" fill="#50a060" data-fill-palette-color="primary"></path><path d="M48.456 54.503l-2.219-2.337 0.713-0.677-6.095-6.419-0.713 0.678-2.226-2.345 6.259-5.943c1.224-1.162 2.412-1.785 3.564-1.869 1.147-0.089 2.28 0.456 3.399 1.634v0c1.119 1.179 1.607 2.341 1.464 3.487-0.148 1.141-0.834 2.292-2.058 3.455v0l-1.556 1.477 1.953 2.056 1.373-1.304 2.219 2.337zM47.065 43.618l0.486-0.461c0.551-0.524 0.539-1.089-0.038-1.696v0l-0.49-0.516c-0.298-0.314-0.585-0.479-0.86-0.496-0.281-0.012-0.558 0.111-0.831 0.371v0l-0.486 0.461z" fill="#50a060" data-fill-palette-color="primary"></path><path d="M60.045 43.74l-1.896-2.606 0.795-0.578-5.21-7.156-0.795 0.578-1.902-2.613 7.3-5.315c1.365-0.993 2.613-1.471 3.745-1.432 1.132 0.038 2.156 0.686 3.072 1.944v0c0.517 0.711 0.821 1.43 0.911 2.158 0.094 0.734-0.052 1.392-0.439 1.976v0l0.134 0.148c1.136-0.585 2.102-0.331 2.898 0.763v0l0.893 1.227 0.745-0.542 1.896 2.605-5.041 3.67-2.722-3.739c-0.3-0.412-0.59-0.679-0.87-0.803-0.27-0.122-0.564-0.129-0.88-0.019-0.313 0.116-0.709 0.348-1.188 0.697v0l1.902 2.614 1.049-0.764 1.897 2.605zM60.08 32.766l0.863-0.628c0.305-0.222 0.473-0.47 0.507-0.744 0.039-0.278-0.069-0.593-0.324-0.943v0l-0.418-0.575c-0.255-0.35-0.52-0.549-0.798-0.597-0.271-0.053-0.559 0.032-0.863 0.253v0l-0.863 0.629z" fill="#50a060" data-fill-palette-color="primary"></path><path d="M85.582 27.481l-11.644 6.38-1.549-2.826 0.863-0.472-4.254-7.763-0.862 0.473-1.554-2.835 11.644-6.381 2.856 5.212-3.863 2.117-1.302-2.377-2.092 1.147 1.493 2.725 1.514-0.83 1.076 1.964-1.514 0.829 1.684 3.074 2.092-1.146-1.493-2.725 3.863-2.117z" fill="#50a060" data-fill-palette-color="primary"></path><path d="M90.759 12.393l-1.178-3.011 6.119-2.394 1.178 3.011-0.731 0.286 1.116 12.528-5.934 2.322-7.673-9.963-0.731 0.286-1.178-3.01 7.035-2.753 1.178 3.011-0.955 0.373 3.655 5.637 0.185-0.072-1.131-6.625z" fill="#50a060" data-fill-palette-color="primary"></path><path d="M116.035 17.452l-12.876 3.24-0.786-3.125 0.954-0.24-2.16-8.584-0.954 0.24-0.789-3.135 12.876-3.24 1.45 5.763-4.271 1.075-0.662-2.628-2.313 0.582 0.758 3.014 1.674-0.422 0.547 2.172-1.674 0.421 0.855 3.399 2.313-0.582-0.758-3.014 4.272-1.074z" fill="#50a060" data-fill-palette-color="primary"></path><path d="M118.073 17.12l-0.379-3.2 0.976-0.116-1.041-8.79-0.977 0.116-0.381-3.211 8.967-1.063c1.676-0.199 2.999-0.004 3.968 0.584 0.969 0.588 1.545 1.654 1.727 3.198v0c0.103 0.873 0.016 1.649-0.261 2.328-0.277 0.686-0.727 1.189-1.349 1.508v0l0.044 0.195c1.277 0.045 1.995 0.74 2.154 2.084v0l0.179 1.507 0.914-0.109 0.379 3.2-6.192 0.734-0.545-4.592c-0.06-0.506-0.182-0.881-0.365-1.126-0.176-0.239-0.429-0.388-0.759-0.448-0.329-0.052-0.788-0.044-1.377 0.027v0l0.381 3.21 1.288-0.153 0.379 3.201zM123.473 7.566l1.06-0.125c0.374-0.044 0.643-0.178 0.806-0.401 0.17-0.224 0.23-0.551 0.179-0.98v0l-0.084-0.707c-0.051-0.429-0.185-0.733-0.403-0.911-0.211-0.179-0.503-0.246-0.877-0.201v0l-1.06 0.125z" fill="#50a060" data-fill-palette-color="primary"></path><path d="M134.983 15.305l0.055-3.222 0.984 0.017 0.152-8.83-0.984-0.017 0.056-3.253 7.982 0.137c2.19 0.038 3.92 0.667 5.189 1.889 1.27 1.222 1.881 3.186 1.835 5.892v0c-0.046 2.699-0.725 4.637-2.036 5.815-1.311 1.177-3.061 1.747-5.251 1.709v0zM141.524 12.194l1.141 0.02c0.446 0.008 0.783-0.105 1.01-0.339 0.227-0.233 0.345-0.598 0.354-1.092v0l0.102-5.942c0.017-0.969-0.421-1.462-1.314-1.477v0l-1.14-0.02z" fill="#50a060" data-fill-palette-color="primary"></path><path d="M165.237 17.712l-13.137-1.924 0.467-3.189 0.973 0.143 1.283-8.758-0.973-0.143 0.468-3.199 13.137 1.925-0.861 5.88-4.358-0.638 0.393-2.682-2.361-0.345-0.45 3.074 1.708 0.25-0.325 2.216-1.708-0.25-0.508 3.468 2.36 0.345 0.451-3.074 4.358 0.638z" fill="#50a060" data-fill-palette-color="primary"></path><path d="M183.643 14.637l-0.792 2.821-0.947-0.266-1.063 3.787c-0.646 0.159-1.534 0.214-2.666 0.165-1.136-0.058-2.325-0.262-3.567-0.611v0c-2.357-0.662-4.029-1.802-5.016-3.419-0.994-1.62-1.126-3.729-0.397-6.328v0c0.749-2.666 1.962-4.419 3.64-5.259 1.669-0.835 3.743-0.905 6.22-0.209v0c1.195 0.336 2.281 0.778 3.257 1.327 0.978 0.543 1.688 1.046 2.13 1.511v0l-1.273 4.533-4.735-1.329 0.252-0.897c0.149-0.531 0.146-0.944-0.01-1.241-0.157-0.291-0.475-0.503-0.951-0.637v0c-0.484-0.136-0.865-0.12-1.144 0.048-0.288 0.173-0.506 0.524-0.655 1.055v0l-1.553 5.53c-0.149 0.531-0.146 0.944 0.01 1.242 0.149 0.295 0.465 0.511 0.949 0.647v0c0.477 0.134 0.859 0.114 1.146-0.059 0.288-0.173 0.506-0.524 0.655-1.055v0l0.037-0.131-1.017-0.285 0.792-2.821z" fill="#50a060" data-fill-palette-color="primary"></path><path d="M183.249 22.851l1.274-2.96 0.903 0.389 3.499-8.131-0.903-0.389 1.278-2.969 8.294 3.569c1.55 0.667 2.598 1.498 3.142 2.492 0.544 0.994 0.509 2.205-0.106 3.633v0c-0.347 0.807-0.811 1.435-1.391 1.884-0.583 0.455-1.224 0.665-1.923 0.631v0l-0.06 0.191c1.082 0.678 1.356 1.639 0.822 2.882v0l-0.6 1.393 0.846 0.364-1.274 2.96-5.728-2.465 1.828-4.248c0.201-0.468 0.284-0.854 0.248-1.157-0.033-0.295-0.177-0.551-0.433-0.768-0.259-0.21-0.661-0.432-1.206-0.666v0l-1.278 2.969 1.192 0.513-1.274 2.96zM192.707 17.285l0.98 0.422c0.346 0.149 0.645 0.168 0.898 0.056 0.259-0.109 0.475-0.362 0.646-0.759v0l0.281-0.653c0.171-0.397 0.207-0.727 0.107-0.991-0.093-0.26-0.313-0.465-0.658-0.613v0l-0.98-0.422z" fill="#50a060" data-fill-palette-color="primary"></path><path d="M204.998 33.791c-2.063-1.24-3.33-2.733-3.801-4.482-0.468-1.754 0.01-3.815 1.433-6.182v0c1.426-2.374 3.024-3.765 4.792-4.176 1.765-0.404 3.678 0.013 5.741 1.253v0c2.057 1.236 3.321 2.728 3.792 4.476 0.468 1.754-0.012 3.818-1.438 6.191v0c-1.423 2.368-3.018 3.757-4.787 4.167-1.765 0.404-3.675-0.011-5.732-1.247zM206.798 30.795c0.377 0.226 0.722 0.295 1.035 0.207 0.313-0.088 0.598-0.345 0.853-0.769v0l3.061-5.094c0.259-0.43 0.353-0.805 0.284-1.123-0.073-0.312-0.297-0.582-0.674-0.808v0c-0.383-0.23-0.729-0.304-1.039-0.221-0.313 0.088-0.6 0.348-0.858 0.778v0l-3.061 5.094c-0.262 0.436-0.357 0.811-0.284 1.123 0.073 0.312 0.3 0.583 0.683 0.813z" fill="#50a060" data-fill-palette-color="primary"></path><path d="M233.342 39.923l2.09-2.466 4.806 4.072-2.091 2.466-0.606-0.514-10.041 7.318-4.486-3.802 4.127-7.638-0.151-0.129-6.93 5.264-4.486-3.802 5.42-11.233-0.599-0.508 2.091-2.466 5.547 4.701-2.09 2.467-0.567-0.481-2.657 4.318 0.151 0.128 6.751-5.086 4.327 3.667-4.014 7.406 0.152 0.128 3.831-3.323z" fill="#50a060" data-fill-palette-color="primary"></path><path d="M235.293 59.315c-0.819-0.951-1.514-1.923-2.083-2.915-0.569-0.992-0.946-1.804-1.132-2.436v0l2.949-2.54 2.827 3.281c-0.306 0.264-0.469 0.524-0.488 0.78-0.019 0.256 0.131 0.569 0.45 0.939v0c0.264 0.306 0.498 0.487 0.701 0.541 0.213 0.055 0.415 0.001 0.606-0.162v0c0.159-0.137 0.239-0.321 0.241-0.554 0.002-0.222-0.073-0.545-0.225-0.966v0l-0.662-1.666c-0.534-1.464-0.725-2.68-0.574-3.649 0.156-0.973 0.716-1.873 1.677-2.701v0c1.173-1.011 2.396-1.392 3.668-1.145 1.273 0.238 2.686 1.258 4.239 3.061v0c0.742 0.861 1.354 1.748 1.835 2.659 0.481 0.911 0.779 1.722 0.894 2.433v0l-2.671 2.301-2.568-2.98c0.497-0.428 0.481-0.948-0.047-1.562v0c-0.26-0.301-0.479-0.481-0.657-0.538-0.183-0.063-0.37-0.013-0.56 0.151v0c-0.169 0.146-0.24 0.336-0.213 0.57 0.028 0.225 0.127 0.549 0.298 0.972v0l0.67 1.674c0.551 1.366 0.749 2.536 0.592 3.509-0.156 0.973-0.697 1.857-1.622 2.654v0c-1.263 1.088-2.583 1.484-3.961 1.189-1.373-0.29-2.768-1.257-4.184-2.9z" fill="#50a060" data-fill-palette-color="primary"></path><path d="M262.382 70.339l-2.696 1.784-0.543-0.82-7.381 4.884 0.542 0.82-2.687 1.778-4.105-6.203 2.687-1.779 0.52 0.786 2.714-1.796-1.519-2.295-2.714 1.796 0.52 0.785-2.687 1.778-4.1-6.195 2.688-1.778 0.543 0.82 7.381-4.884-0.542-0.82 2.696-1.785 4.099 6.196-2.696 1.784-0.52-0.786-2.487 1.646 1.519 2.295 2.487-1.646-0.52-0.785 2.696-1.784z" fill="#50a060" data-fill-palette-color="primary"></path><path d="M253.524 87.386c-1.039-2.17-1.274-4.115-0.705-5.834 0.575-1.722 2.109-3.179 4.6-4.371v0c2.498-1.196 4.597-1.478 6.3-0.847 1.696 0.634 3.063 2.037 4.102 4.207v0c1.036 2.164 1.27 4.106 0.701 5.824-0.575 1.722-2.112 3.18-4.61 4.376v0c-2.491 1.193-4.588 1.474-6.29 0.843-1.696-0.634-3.062-2.034-4.098-4.198zM256.676 85.877c0.19 0.396 0.44 0.644 0.75 0.743 0.31 0.099 0.689 0.041 1.136-0.173v0l5.36-2.566c0.453-0.217 0.738-0.477 0.856-0.781 0.111-0.301 0.072-0.649-0.118-1.045v0c-0.193-0.403-0.441-0.655-0.745-0.757-0.31-0.099-0.692-0.04-1.145 0.177v0l-5.36 2.566c-0.459 0.22-0.745 0.48-0.856 0.781-0.111 0.301-0.07 0.652 0.122 1.055z" fill="#50a060" data-fill-palette-color="primary"></path><path d="M257.706 95.9l3.061-1.006 0.307 0.935 8.41-2.763-0.307-0.934 3.071-1.009 2.694 8.2c0.527 1.604 0.582 2.944 0.165 4.021-0.411 1.075-1.388 1.866-2.932 2.373v0c-1.544 0.507-2.803 0.451-3.778-0.169-0.968-0.622-1.715-1.735-2.242-3.338v0l-0.669-2.038-2.694 0.885 0.591 1.799-3.061 1.006zM268.14 99.3l0.209 0.637c0.237 0.722 0.754 0.953 1.549 0.691v0l0.676-0.222c0.411-0.135 0.683-0.324 0.816-0.566 0.131-0.249 0.138-0.552 0.02-0.909v0l-0.209-0.637z" fill="#50a060" data-fill-palette-color="primary"></path><path d="M15.569 189.421v0c-0.426 0.134-0.822 0.199-1.188 0.197-0.373 0-0.717-0.049-1.033-0.148-0.314-0.092-0.598-0.229-0.853-0.412-0.259-0.175-0.485-0.37-0.678-0.588-0.192-0.217-0.36-0.45-0.504-0.697-0.135-0.243-0.238-0.481-0.311-0.714v0l-2.599-8.286 2.147-0.673 2.598 8.286c0.129 0.413 0.354 0.697 0.673 0.852 0.311 0.151 0.669 0.163 1.075 0.036v0c0.2-0.063 0.373-0.15 0.521-0.262 0.148-0.112 0.264-0.243 0.348-0.394 0.084-0.151 0.135-0.316 0.151-0.497 0.014-0.187-0.01-0.381-0.073-0.58v0l-1.549-4.942c-0.109-0.346-0.162-0.739-0.161-1.178-0.005-0.437 0.077-0.872 0.248-1.306 0.164-0.432 0.434-0.831 0.809-1.197 0.373-0.373 0.882-0.66 1.528-0.862v0c0.646-0.202 1.225-0.256 1.737-0.161 0.517 0.086 0.969 0.259 1.357 0.517 0.381 0.261 0.698 0.571 0.95 0.93 0.252 0.36 0.432 0.713 0.54 1.059v0l2.295 7.318-2.156 0.676-2.295-7.318c-0.127-0.406-0.35-0.684-0.667-0.832-0.317-0.149-0.679-0.16-1.085-0.033v0c-0.413 0.129-0.703 0.345-0.872 0.646-0.169 0.301-0.189 0.655-0.062 1.061v0l1.55 4.942 0.006 0.02c0.066 0.235 0.11 0.492 0.132 0.77 0.021 0.278 0.012 0.563-0.029 0.854-0.04 0.29-0.117 0.581-0.23 0.872-0.107 0.289-0.262 0.565-0.465 0.826-0.203 0.261-0.459 0.495-0.767 0.701-0.299 0.211-0.662 0.383-1.088 0.517z" fill="#50a060" data-fill-palette-color="primary"></path><path d="M25.904 191.613l-11.52 4.638-0.841-2.086 11.521-4.639z" fill="#50a060" data-fill-palette-color="primary"></path><path d="M27.507 206.326l-2.027 1.022-3.203-6.353 2.028-1.022zM23.409 209.517l-2.008 1.012-3.655-7.25c-0.141-0.28-0.244-0.608-0.307-0.982-0.073-0.377-0.07-0.766 0.01-1.165 0.083-0.393 0.258-0.774 0.525-1.143 0.261-0.366 0.653-0.681 1.176-0.944v0l7.25-3.655c0.143-0.072 0.287-0.113 0.43-0.123 0.153-0.007 0.298 0.01 0.436 0.05 0.137 0.04 0.262 0.11 0.375 0.209 0.119 0.096 0.214 0.216 0.286 0.36v0l4.564 9.053-2.018 1.017-4.06-8.053-6.25 3.15c-0.262 0.132-0.429 0.302-0.504 0.512-0.065 0.212-0.03 0.452 0.105 0.72v0z" fill="#50a060" data-fill-palette-color="primary"></path><path d="M41.34 219.863l-9.499 6.404-1.269-1.882 6.133-4.136-8.05 0.62c-0.205 0.02-0.396-0.019-0.572-0.119-0.178-0.09-0.324-0.219-0.437-0.387v0c-0.109-0.162-0.17-0.34-0.183-0.533-0.022-0.195 0.014-0.384 0.11-0.566v0l3.581-7.247-6.133 4.135-1.258-1.865 9.5-6.405c0.214-0.144 0.448-0.209 0.701-0.195 0.254 0.014 0.477 0.103 0.672 0.266v0c0.093 0.088 0.17 0.184 0.231 0.286 0.059 0.112 0.102 0.226 0.129 0.342 0.028 0.116 0.035 0.233 0.022 0.351-0.013 0.118-0.048 0.234-0.105 0.349v0l-4.517 9.228 10.249-0.726c0.253-0.011 0.487 0.055 0.7 0.196 0.204 0.14 0.352 0.335 0.444 0.584v0c0.075 0.236 0.073 0.476-0.005 0.723-0.082 0.24-0.23 0.433-0.444 0.577z" fill="#50a060" data-fill-palette-color="primary"></path><path d="M49.386 233.777l-0.765 0.682c-0.385 0.343-0.768 0.6-1.149 0.77-0.386 0.175-0.768 0.287-1.146 0.334-0.373 0.043-0.735 0.029-1.087-0.04-0.352-0.06-0.683-0.158-0.991-0.295-0.313-0.142-0.597-0.309-0.852-0.501-0.256-0.193-0.476-0.393-0.662-0.601v0l-3.382-3.798 1.679-1.496 3.382 3.797c0.216 0.2 0.434 0.356 0.655 0.468 0.231 0.112 0.462 0.177 0.693 0.196 0.231 0.018 0.463-0.015 0.695-0.101 0.232-0.085 0.455-0.223 0.669-0.413v0l0.765-0.682c0.19-0.206 0.343-0.422 0.46-0.648 0.117-0.225 0.184-0.454 0.203-0.685 0.018-0.231-0.01-0.463-0.086-0.694-0.081-0.227-0.221-0.452-0.421-0.677v0l-3.375-3.789c-0.199-0.224-0.408-0.342-0.624-0.355-0.217-0.013-0.434 0.079-0.653 0.274v0l-6.914 6.159-1.497-1.68 6.915-6.159c0.427-0.38 0.861-0.627 1.302-0.74 0.441-0.113 0.86-0.136 1.257-0.068 0.391 0.072 0.751 0.209 1.08 0.411 0.334 0.197 0.606 0.413 0.815 0.647v0l3.382 3.797c0.339 0.38 0.593 0.765 0.763 1.156 0.17 0.39 0.277 0.772 0.319 1.145 0.047 0.378 0.039 0.741-0.025 1.088-0.07 0.352-0.173 0.682-0.31 0.99-0.136 0.308-0.301 0.59-0.493 0.846-0.198 0.26-0.398 0.481-0.602 0.662z" fill="#50a060" data-fill-palette-color="primary"></path><path d="M62.012 242.989l-0.945 1.078c-0.34 0.388-0.691 0.693-1.052 0.914-0.366 0.217-0.732 0.369-1.097 0.458-0.365 0.088-0.726 0.124-1.082 0.108-0.358-0.026-0.698-0.088-1.021-0.185-0.327-0.092-0.63-0.218-0.907-0.378-0.283-0.164-0.526-0.336-0.731-0.515v0l0.857 6.149-2.62-2.296-0.849-6.143-1.22-1.069 1.483-1.691 3.832 3.358c0.228 0.163 0.461 0.288 0.699 0.377 0.237 0.078 0.475 0.115 0.712 0.109 0.232-0.01 0.457-0.072 0.677-0.186 0.225-0.109 0.434-0.273 0.628-0.493v0l0.931-1.062c0.087-0.1 0.139-0.185 0.153-0.255 0.02-0.075 0.02-0.14 0.002-0.193-0.014-0.058-0.037-0.106-0.068-0.144-0.042-0.037-0.081-0.071-0.118-0.103v0l-5.587-4.897-6.696 7.64-1.692-1.483 7.435-8.481c0.106-0.121 0.223-0.212 0.352-0.276 0.134-0.068 0.275-0.107 0.423-0.116 0.142-0.014 0.284 0.004 0.426 0.053 0.146 0.045 0.28 0.12 0.4 0.226v0l6.428 5.634c0.378 0.331 0.638 0.68 0.781 1.046 0.133 0.367 0.191 0.724 0.174 1.071-0.017 0.347-0.094 0.673-0.232 0.979-0.133 0.3-0.292 0.556-0.476 0.766z" fill="#50a060" data-fill-palette-color="primary"></path><path d="M71.823 252.635l-1.286 1.871-5.864-4.028 1.286-1.872zM69.766 257.403l-1.274 1.855-6.692-4.597c-0.259-0.178-0.506-0.415-0.742-0.713-0.245-0.296-0.429-0.638-0.552-1.026-0.117-0.385-0.147-0.803-0.09-1.255 0.053-0.446 0.245-0.911 0.577-1.394v0l4.597-6.692c0.091-0.132 0.197-0.237 0.318-0.315 0.131-0.079 0.266-0.135 0.406-0.166 0.14-0.031 0.283-0.03 0.429 0.003 0.151 0.027 0.292 0.086 0.424 0.177v0l8.357 5.741-1.28 1.862-7.434-5.106-3.963 5.77c-0.166 0.241-0.231 0.472-0.195 0.69 0.045 0.217 0.192 0.411 0.439 0.581v0z" fill="#50a060" data-fill-palette-color="primary"></path><path d="M86.871 254.947l2.229 1.155-10.724 7.934c-0.17 0.116-0.361 0.182-0.574 0.198-0.216 0.022-0.419-0.017-0.612-0.117v0c-0.192-0.1-0.341-0.244-0.447-0.432-0.11-0.183-0.166-0.377-0.169-0.583v0l0.303-13.337 2.238 1.16-0.244 9.95z" fill="#50a060" data-fill-palette-color="primary"></path><path d="M98.732 265.335l-0.823 2.116-6.63-2.58 0.823-2.116zM97.821 270.448l-0.816 2.096-7.567-2.944c-0.293-0.114-0.588-0.288-0.885-0.524-0.307-0.232-0.564-0.523-0.771-0.873-0.201-0.348-0.326-0.748-0.375-1.201-0.051-0.446 0.03-0.943 0.242-1.488v0l2.944-7.567c0.058-0.15 0.137-0.276 0.238-0.379 0.109-0.107 0.228-0.192 0.357-0.254 0.129-0.062 0.269-0.094 0.419-0.095 0.153-0.008 0.304 0.017 0.453 0.075v0l9.448 3.676-0.819 2.106-8.405-3.27-2.538 6.523c-0.106 0.273-0.117 0.512-0.032 0.717 0.094 0.201 0.281 0.356 0.56 0.465v0z" fill="#50a060" data-fill-palette-color="primary"></path><path d="M115.667 267.451l-0.354 1.389c-0.128 0.5-0.303 0.931-0.525 1.292-0.229 0.359-0.486 0.661-0.771 0.904-0.285 0.244-0.591 0.439-0.916 0.587-0.331 0.139-0.662 0.238-0.994 0.296-0.334 0.066-0.66 0.09-0.98 0.074-0.326-0.019-0.621-0.062-0.885-0.129v0l3.547 5.096-3.376-0.862-3.537-5.094-1.571-0.401 0.557-2.18 4.937 1.262c0.277 0.042 0.542 0.048 0.794 0.019 0.247-0.038 0.475-0.113 0.684-0.225 0.202-0.114 0.375-0.271 0.52-0.472 0.152-0.199 0.264-0.44 0.336-0.724v0l0.35-1.368c0.033-0.128 0.04-0.227 0.022-0.297-0.017-0.076-0.045-0.134-0.086-0.173-0.039-0.046-0.081-0.078-0.126-0.097-0.054-0.014-0.105-0.027-0.152-0.039v0l-7.198-1.839-2.515 9.843-2.179-0.557 2.792-10.927c0.04-0.155 0.103-0.29 0.19-0.405 0.089-0.121 0.197-0.22 0.324-0.296 0.121-0.077 0.255-0.126 0.404-0.145 0.151-0.026 0.304-0.02 0.459 0.02v0l8.282 2.116c0.487 0.124 0.876 0.318 1.17 0.58 0.285 0.267 0.498 0.559 0.64 0.876 0.142 0.317 0.221 0.643 0.236 0.978 0.017 0.328-0.009 0.628-0.079 0.898z" fill="#50a060" data-fill-palette-color="primary"></path><path d="M130.919 271.967l-0.26 2.013c-0.096 0.747-0.316 1.419-0.66 2.014-0.337 0.597-0.763 1.094-1.279 1.491-0.522 0.397-1.115 0.683-1.777 0.858-0.662 0.175-1.36 0.215-2.094 0.121v0l-6.029-0.777c-0.159-0.02-0.304-0.067-0.435-0.14-0.13-0.08-0.241-0.175-0.333-0.285-0.083-0.116-0.144-0.244-0.182-0.383-0.044-0.146-0.056-0.299-0.036-0.458v0l1.296-10.066c0.02-0.159 0.07-0.3 0.149-0.423 0.073-0.131 0.165-0.242 0.275-0.334 0.117-0.09 0.248-0.154 0.394-0.192 0.146-0.044 0.299-0.056 0.459-0.036v0l6.029 0.776c0.733 0.094 1.398 0.314 1.993 0.658 0.597 0.337 1.097 0.764 1.502 1.28 0.399 0.508 0.685 1.097 0.859 1.767 0.182 0.663 0.225 1.369 0.129 2.116zM128.428 273.692l0.26-2.013c0.056-0.436 0.038-0.843-0.054-1.22-0.099-0.378-0.26-0.712-0.483-1.001-0.223-0.289-0.505-0.526-0.848-0.71-0.342-0.185-0.727-0.305-1.156-0.36v0l-4.929-0.635-1.01 7.845 4.929 0.635c0.429 0.055 0.832 0.037 1.21-0.055 0.378-0.099 0.712-0.26 1.001-0.483 0.288-0.216 0.528-0.495 0.719-0.836 0.185-0.342 0.305-0.731 0.361-1.167z" fill="#50a060" data-fill-palette-color="primary"></path><path d="M144.708 272.015l-0.021 2.27-7.114-0.064 0.02-2.27zM145.666 277.119l-0.02 2.249-8.119-0.073c-0.314-0.003-0.652-0.062-1.013-0.176-0.369-0.108-0.712-0.289-1.031-0.543-0.312-0.254-0.57-0.584-0.776-0.991-0.206-0.399-0.306-0.892-0.3-1.478v0l0.073-8.118c0.001-0.16 0.031-0.307 0.087-0.439 0.064-0.139 0.145-0.26 0.244-0.364 0.099-0.104 0.218-0.183 0.358-0.237 0.14-0.062 0.29-0.092 0.451-0.091v0l10.138 0.092-0.021 2.259-9.018-0.081-0.063 7c-0.003 0.293 0.072 0.52 0.224 0.682 0.159 0.155 0.389 0.234 0.689 0.236v0z" fill="#50a060" data-fill-palette-color="primary"></path><path d="M158.534 263.652l3.075-0.449-0.672 0.902c-0.007 0.001-0.086 0.115-0.236 0.341-0.157 0.227-0.349 0.53-0.576 0.909-0.226 0.385-0.464 0.832-0.713 1.341-0.25 0.509-0.471 1.048-0.663 1.619-0.198 0.579-0.344 1.171-0.439 1.777-0.094 0.613-0.098 1.213-0.013 1.799v0c0.086 0.587 0.26 1.157 0.524 1.71 0.265 0.561 0.574 1.086 0.928 1.578 0.347 0.492 0.712 0.946 1.097 1.363 0.386 0.423 0.742 0.784 1.067 1.081 0.326 0.305 0.597 0.54 0.812 0.707 0.209 0.174 0.317 0.264 0.325 0.27v0l0.901 0.672-3.075 0.448c-0.242-0.211-0.519-0.464-0.829-0.757-0.312-0.3-0.628-0.634-0.95-1.003-0.33-0.375-0.66-0.778-0.99-1.209-0.324-0.432-0.623-0.892-0.899-1.381-0.276-0.488-0.512-0.997-0.709-1.525-0.204-0.527-0.346-1.07-0.428-1.63v0c-0.081-0.559-0.1-1.12-0.055-1.683 0.038-0.562 0.119-1.117 0.244-1.664 0.125-0.547 0.281-1.074 0.468-1.58 0.193-0.514 0.394-0.995 0.604-1.442 0.202-0.452 0.41-0.863 0.624-1.233 0.213-0.376 0.406-0.697 0.578-0.961z" fill="#50a060" data-fill-palette-color="primary"></path><path d="M176.944 272.045l0.509 2.191-7.908 1.839c-0.204 0.047-0.427 0.074-0.669 0.08-0.242 0.006-0.49-0.015-0.745-0.063-0.248-0.05-0.495-0.128-0.742-0.236-0.242-0.116-0.471-0.27-0.688-0.463-0.215-0.186-0.405-0.418-0.57-0.694-0.166-0.284-0.293-0.612-0.379-0.986v0l-1.381-5.942c-0.046-0.197-0.073-0.42-0.081-0.669-0.006-0.242 0.015-0.49 0.063-0.745 0.05-0.248 0.132-0.496 0.246-0.744 0.116-0.242 0.27-0.471 0.463-0.688 0.188-0.208 0.419-0.398 0.695-0.57 0.277-0.165 0.602-0.29 0.976-0.377v0l7.908-1.838 0.512 2.201-7.908 1.838c-0.285 0.066-0.485 0.192-0.601 0.376-0.122 0.186-0.148 0.428-0.078 0.727v0l1.377 5.921c0.065 0.279 0.193 0.478 0.386 0.598 0.193 0.12 0.428 0.148 0.707 0.083v0z" fill="#50a060" data-fill-palette-color="primary"></path><path d="M179.512 260.419l1.722 4.773 7.431-2.679-1.722-4.774 2.116-0.763 4.214 11.683-2.117 0.763-1.721-4.774-7.431 2.68 1.721 4.774-2.116 0.763-4.213-11.683z" fill="#50a060" data-fill-palette-color="primary"></path><path d="M194.388 254.458l5.23 11.264-2.04 0.947-5.231-11.264z" fill="#50a060" data-fill-palette-color="primary"></path><path d="M208.333 246.563l5.723 9.926c0.08 0.139 0.128 0.285 0.143 0.436 0.015 0.152 0.007 0.298-0.026 0.438-0.042 0.137-0.106 0.263-0.193 0.377-0.089 0.124-0.204 0.226-0.343 0.306v0c-0.121 0.07-0.256 0.115-0.404 0.137-0.145 0.027-0.296 0.018-0.452-0.03v0l-11.415-3.334 4.369 7.578-1.949 1.123-5.722-9.925c-0.115-0.199-0.162-0.414-0.141-0.643 0.015-0.226 0.087-0.429 0.217-0.608v0c0.146-0.181 0.325-0.308 0.539-0.384 0.214-0.075 0.433-0.08 0.656-0.015v0l11.418 3.319-4.368-7.577z" fill="#50a060" data-fill-palette-color="primary"></path><path d="M224.361 240.683l1.443 1.885c0.458 0.598 0.777 1.228 0.959 1.889 0.185 0.666 0.235 1.322 0.149 1.968-0.091 0.65-0.308 1.268-0.649 1.854-0.347 0.591-0.817 1.113-1.41 1.567v0l-2.417 1.85c-0.593 0.454-1.219 0.771-1.881 0.952-0.661 0.181-1.314 0.229-1.959 0.143-0.645-0.086-1.268-0.303-1.869-0.651-0.591-0.347-1.115-0.82-1.573-1.418v0l-1.444-1.886c-0.454-0.593-0.773-1.222-0.958-1.888-0.175-0.665-0.22-1.32-0.135-1.966 0.086-0.645 0.302-1.263 0.649-1.854 0.347-0.591 0.817-1.113 1.41-1.567v0l2.418-1.851c0.593-0.454 1.219-0.771 1.88-0.952 0.655-0.177 1.308-0.224 1.959-0.143 0.645 0.086 1.263 0.302 1.854 0.65 0.595 0.353 1.119 0.825 1.574 1.418zM224.018 243.936l-1.444-1.886c-0.267-0.349-0.566-0.625-0.897-0.828-0.331-0.203-0.678-0.329-1.04-0.377-0.358-0.043-0.725-0.012-1.102 0.092-0.367 0.105-0.725 0.292-1.074 0.559v0l-2.417 1.851c-0.349 0.267-0.622 0.564-0.82 0.891-0.199 0.337-0.325 0.683-0.377 1.04-0.054 0.366-0.025 0.735 0.084 1.108 0.11 0.373 0.298 0.734 0.565 1.083v0l1.444 1.886c0.271 0.354 0.571 0.631 0.898 0.828 0.331 0.203 0.681 0.327 1.048 0.37 0.362 0.048 0.729 0.017 1.102-0.092 0.367-0.105 0.725-0.292 1.074-0.559v0l2.409-1.845c0.349-0.267 0.622-0.564 0.82-0.891 0.203-0.331 0.329-0.678 0.377-1.039 0.054-0.366 0.025-0.735-0.085-1.109-0.105-0.367-0.294-0.728-0.565-1.082z" fill="#50a060" data-fill-palette-color="primary"></path><path d="M238.743 232.559l0.302 0.306c0.196 0.199 0.372 0.447 0.527 0.743 0.156 0.287 0.252 0.604 0.289 0.95 0.037 0.346-0.005 0.705-0.126 1.079-0.121 0.374-0.36 0.737-0.718 1.09v0l-6.08 5.994c-0.114 0.113-0.241 0.198-0.379 0.256-0.143 0.053-0.287 0.082-0.429 0.086-0.143-0.006-0.281-0.037-0.414-0.092-0.143-0.055-0.27-0.14-0.383-0.254v0l-7.125-7.227c-0.113-0.114-0.193-0.241-0.242-0.379-0.058-0.139-0.089-0.279-0.093-0.423 0.001-0.148 0.032-0.291 0.092-0.428 0.055-0.143 0.14-0.27 0.254-0.383v0l5.365-5.289c0.194-0.191 0.439-0.364 0.736-0.52 0.297-0.146 0.621-0.24 0.971-0.282 0.346-0.037 0.703 0.003 1.072 0.119 0.374 0.121 0.737 0.36 1.09 0.718v0l0.294 0.298c0.284 0.288 0.538 0.64 0.762 1.056 0.229 0.421 0.383 0.881 0.463 1.379v0c0.287-0.067 0.588-0.099 0.904-0.097 0.311-0.003 0.626 0.039 0.946 0.125 0.325 0.091 0.649 0.231 0.973 0.421 0.324 0.19 0.641 0.441 0.949 0.754zM237.435 234.437l-0.294-0.298c-0.206-0.209-0.424-0.366-0.655-0.471-0.231-0.095-0.465-0.144-0.701-0.146-0.237-0.002-0.469 0.046-0.697 0.143-0.233 0.102-0.456 0.258-0.669 0.469v0l-3.614 3.563-1.594-1.617 2.899-2.857c0.209-0.206 0.366-0.424 0.47-0.656 0.11-0.226 0.166-0.458 0.168-0.694 0.002-0.237-0.051-0.469-0.158-0.696-0.097-0.228-0.251-0.448-0.461-0.662v0l-0.294-0.298c-0.225-0.228-0.447-0.235-0.666-0.02v0l-4.574 4.511 5.553 5.632 5.29-5.215c0.03-0.029 0.062-0.066 0.097-0.11 0.04-0.049 0.065-0.098 0.075-0.148 0.015-0.054 0.011-0.118-0.014-0.192-0.024-0.074-0.078-0.153-0.161-0.238z" fill="#50a060" data-fill-palette-color="primary"></path><path d="M243.75 215.837l1.125 0.889c0.405 0.32 0.727 0.655 0.967 1.004 0.235 0.355 0.406 0.712 0.513 1.072 0.107 0.36 0.161 0.719 0.163 1.076-0.008 0.358-0.052 0.701-0.133 1.029-0.075 0.332-0.186 0.64-0.331 0.925-0.15 0.291-0.309 0.543-0.477 0.756v0l6.098-1.169-2.161 2.734-6.091 1.161-1.005 1.272-1.765-1.395 3.159-3.998c0.151-0.236 0.265-0.475 0.34-0.717 0.066-0.241 0.09-0.48 0.073-0.716-0.022-0.231-0.095-0.453-0.22-0.667-0.12-0.219-0.295-0.42-0.525-0.602v0l-1.108-0.876c-0.104-0.082-0.191-0.129-0.262-0.14-0.076-0.016-0.141-0.013-0.193 0.007-0.058 0.017-0.104 0.042-0.14 0.076-0.035 0.044-0.067 0.085-0.097 0.124v0l-4.606 5.828 7.971 6.299-1.395 1.765-8.849-6.993c-0.126-0.099-0.224-0.212-0.293-0.338-0.075-0.13-0.121-0.269-0.138-0.416-0.022-0.141-0.011-0.284 0.032-0.429 0.037-0.148 0.106-0.285 0.205-0.411v0l5.3-6.707c0.311-0.394 0.646-0.672 1.004-0.833 0.36-0.151 0.713-0.228 1.061-0.228 0.347-0.001 0.677 0.06 0.99 0.182 0.307 0.118 0.57 0.263 0.788 0.436z" fill="#50a060" data-fill-palette-color="primary"></path><path d="M254.205 203.082l2.034 1.227c0.645 0.389 1.172 0.858 1.582 1.408 0.416 0.553 0.702 1.145 0.859 1.777 0.153 0.638 0.177 1.292 0.074 1.963-0.107 0.677-0.353 1.335-0.739 1.973v0l-1.574 2.607c-0.386 0.639-0.853 1.164-1.402 1.574-0.549 0.41-1.139 0.693-1.771 0.849-0.632 0.156-1.291 0.182-1.978 0.078-0.677-0.107-1.338-0.355-1.982-0.745v0l-2.034-1.227c-0.639-0.386-1.167-0.855-1.582-1.407-0.406-0.555-0.688-1.148-0.844-1.781-0.156-0.632-0.181-1.286-0.074-1.963 0.107-0.677 0.353-1.335 0.739-1.974v0l1.573-2.606c0.386-0.639 0.853-1.164 1.402-1.574 0.545-0.404 1.136-0.687 1.771-0.849 0.632-0.156 1.286-0.181 1.964-0.074 0.683 0.111 1.344 0.359 1.982 0.744zM255.076 206.235l-2.033-1.227c-0.376-0.227-0.756-0.375-1.138-0.442-0.383-0.068-0.751-0.058-1.106 0.029-0.348 0.091-0.679 0.254-0.992 0.489-0.303 0.232-0.568 0.537-0.795 0.913v0l-1.573 2.607c-0.227 0.376-0.373 0.753-0.437 1.129-0.062 0.386-0.052 0.755 0.029 1.106 0.084 0.36 0.245 0.694 0.484 1 0.238 0.307 0.546 0.574 0.922 0.801v0l2.033 1.227c0.382 0.231 0.762 0.378 1.138 0.443 0.383 0.068 0.753 0.055 1.111-0.038 0.354-0.088 0.685-0.251 0.992-0.49 0.303-0.232 0.568-0.537 0.795-0.913v0l1.568-2.597c0.227-0.376 0.373-0.753 0.437-1.13 0.068-0.383 0.058-0.751-0.029-1.105-0.084-0.36-0.245-0.694-0.484-1.001-0.232-0.303-0.54-0.57-0.922-0.801z" fill="#50a060" data-fill-palette-color="primary"></path><path d="M256.35 185.532l0.895-2.098 9.892 6.488c0.195 0.129 0.338 0.3 0.43 0.513 0.088 0.22 0.106 0.444 0.054 0.672v0c-0.055 0.235-0.165 0.43-0.33 0.587-0.166 0.157-0.365 0.25-0.597 0.28v0l-7.845 1.133 4.603 6.459c0.116 0.156 0.185 0.329 0.21 0.521 0.015 0.196-0.016 0.384-0.093 0.564v0c-0.107 0.25-0.281 0.437-0.524 0.561-0.24 0.118-0.494 0.145-0.764 0.083v0l-11.531-2.648 0.895-2.098 8.132 1.846-3.813-5.485c-0.116-0.156-0.182-0.328-0.2-0.518-0.021-0.199 0.006-0.388 0.083-0.567v0c0.077-0.18 0.193-0.327 0.348-0.443 0.149-0.118 0.323-0.196 0.521-0.233v0l6.59-1.02z" fill="#50a060" data-fill-palette-color="primary"></path><path d="M265.526 177.491v0c0.541 0.164 1.057 0.383 1.55 0.656 0.491 0.28 0.957 0.593 1.399 0.939 0.442 0.346 0.852 0.711 1.231 1.096 0.377 0.391 0.726 0.778 1.047 1.16 0.315 0.38 0.597 0.746 0.847 1.099 0.245 0.344 0.454 0.652 0.627 0.923v0l-0.903 2.973-0.529-0.992c-0.005-0.009-0.077-0.129-0.219-0.361-0.134-0.23-0.328-0.53-0.58-0.898-0.246-0.366-0.549-0.772-0.91-1.217-0.354-0.443-0.748-0.872-1.183-1.288-0.435-0.416-0.91-0.797-1.424-1.144-0.513-0.352-1.049-0.614-1.61-0.784v0c-0.567-0.172-1.162-0.254-1.784-0.246-0.613 0.003-1.22 0.056-1.819 0.158-0.593 0.104-1.16 0.242-1.7 0.413-0.54 0.171-1.018 0.34-1.433 0.505-0.408 0.168-0.735 0.309-0.982 0.424-0.246 0.115-0.37 0.175-0.372 0.182v0l-0.992 0.53 0.903-2.974c0.288-0.131 0.633-0.271 1.034-0.418 0.397-0.156 0.836-0.304 1.316-0.443 0.473-0.141 0.978-0.268 1.515-0.381 0.529-0.109 1.073-0.184 1.633-0.226 0.559-0.042 1.121-0.042 1.684-0.002 0.562 0.047 1.113 0.152 1.654 0.316z" fill="#50a060" data-fill-palette-color="primary"></path><path d="M6.495 142.238c0-0.986 0.799-1.786 1.786-1.785 0.986 0 1.786 0.799 1.786 1.785 0 0.986-0.799 1.786-1.786 1.786-0.986 0-1.786-0.799-1.786-1.786z" fill="#50a060" data-fill-palette-color="primary"></path><path d="M269.899 142.238c0-0.986 0.799-1.786 1.785-1.785 0.986 0 1.786 0.799 1.786 1.785 0 0.986-0.799 1.786-1.786 1.786-0.986 0-1.786-0.799-1.785-1.786z" fill="#50a060" data-fill-palette-color="primary"></path></g></svg></g></svg></g></svg></g></svg></g></svg></g></svg></g><defs></defs></svg><rect width="512" height="320" fill="none" stroke="none" visibility="hidden"></rect></g></svg></g></svg>